/* XPM */
static char *_37e2d61c34a455ee799165a34108cd1APO6NdV7570sAfas[] = {
/* columns rows colors chars-per-pixel */
"16 16 76 1 ",
"  c None",
". c #1F1716",
"X c #211918",
"o c #221919",
"O c #221A19",
"+ c #221A1A",
"@ c #231A1A",
"# c #231B1A",
"$ c #231B1B",
"% c #241C1B",
"& c #241C1C",
"* c #251D1D",
"= c #251D1E",
"- c #271F20",
"; c #2A2225",
": c #2C252A",
"> c #2D252B",
", c #342E36",
"< c #362F39",
"1 c #3B3439",
"2 c #423B42",
"3 c #433C43",
"4 c #433D44",
"5 c #453E46",
"6 c #413B4C",
"7 c #453F53",
"8 c #4B454E",
"9 c #484358",
"0 c #55516E",
"q c #575371",
"w c #5E5B7D",
"e c #726D7F",
"r c #636084",
"t c #69678F",
"y c #7E7A8E",
"u c #6B6992",
"i c #7F7C90",
"p c #72709D",
"a c #7675A5",
"s c #7776A6",
"d c #7D7CB0",
"f c #858297",
"g c #878399",
"h c #88859B",
"j c #89869C",
"k c #8A879D",
"l c #8F8CA4",
"z c #908DA7",
"x c #9390A9",
"c c #8282B9",
"v c #8686BF",
"b c #9593B0",
"n c #9D9AB6",
"m c #9391B8",
"M c #A09EB8",
"N c #8787C1",
"B c #8888C1",
"V c #8888C2",
"C c #B7B5D6",
"Z c #B4B4E3",
"A c #B6B6E5",
"S c #B7B7E6",
"D c #BABAE8",
"F c #C0C0E2",
"G c #C2C1E5",
"H c #C5C4E7",
"J c #CBCBF0",
"K c #D2D2F7",
"L c #D7D7FF",
"P c #D8D8FE",
"I c #D8D8FF",
"U c #D9D9FF",
"Y c #DADAFF",
"T c #DBDBFF",
"R c #DBDCFF",
"E c #DCDCFF",
/* pixels */
"       Z        ",
"      vSU       ",
"     vvSKl      ",
"     vvDM5      ",
"    NNVm4%y     ",
"   taaw,O%4D    ",
"   9>:*O%%*hU   ",
"   u;%%11=.2HU  ",
"   c6$OyGne8xU  ",
"   Vr*OfEEUJC   ",
"   Vd<XgULLU    ",
"    V0OhUUL     ",
"     p:hUU      ",
"      9hU       ",
"      qzE       ",
"       b        "
};
