/* XPM */
static char *bc78077d6ef84809d4de80b802bcf73dH1qZr77bn0LpFQVP[] = {
/* columns rows colors chars-per-pixel */
"64 64 252 2 ",
"   c None",
".  c #211918",
"X  c #211919",
"o  c #221918",
"O  c #221919",
"+  c #221A19",
"@  c #221A1A",
"#  c #231A1A",
"$  c #231B1A",
"%  c #231B1B",
"&  c #241B1B",
"*  c #241C1B",
"=  c #241C1C",
"-  c #241C1D",
";  c #251D1D",
":  c #251D1E",
">  c #251E1E",
",  c #261E1E",
"<  c #261E1F",
"1  c #261F20",
"2  c #271F20",
"3  c #261F21",
"4  c #271F21",
"5  c #282122",
"6  c #282023",
"7  c #2A2223",
"8  c #292124",
"9  c #2A2327",
"0  c #2C2527",
"q  c #2B2328",
"w  c #2D2528",
"e  c #2E2629",
"r  c #2D252A",
"t  c #2D262B",
"y  c #2D262C",
"u  c #2E272C",
"i  c #2E272D",
"p  c #2F282A",
"a  c #30282B",
"s  c #312A2D",
"d  c #302930",
"f  c #302931",
"g  c #312A31",
"h  c #312B33",
"j  c #332C30",
"k  c #352E32",
"l  c #332C35",
"z  c #342D36",
"x  c #352E38",
"c  c #373035",
"v  c #37313C",
"b  c #37313D",
"n  c #393338",
"m  c #3B353A",
"M  c #3C353B",
"N  c #38313D",
"B  c #3E373E",
"V  c #3B3442",
"C  c #3B3543",
"Z  c #3E3848",
"A  c #3F3A4A",
"S  c #403A40",
"D  c #403A41",
"F  c #433D44",
"G  c #443E45",
"H  c #463F47",
"J  c #403B4B",
"K  c #433D4B",
"L  c #443E51",
"P  c #453F52",
"I  c #48424B",
"U  c #4C464F",
"Y  c #464156",
"T  c #4E4852",
"R  c #494459",
"E  c #49445A",
"W  c #4A455C",
"Q  c #524C57",
"!  c #544F5B",
"~  c #4E4962",
"^  c #4F4A63",
"/  c #504D68",
"(  c #534E69",
")  c #534F6B",
"_  c #544F6B",
"`  c #5A5561",
"'  c #5B5663",
"]  c #5C5764",
"[  c #55516D",
"{  c #575473",
"}  c #585472",
"|  c #585573",
" . c #595675",
".. c #5A5778",
"X. c #5C597A",
"o. c #5D5A7B",
"O. c #5E5B7C",
"+. c #625E6C",
"@. c #635E6C",
"#. c #635E6D",
"$. c #65606F",
"%. c #676271",
"&. c #676372",
"*. c #696474",
"=. c #6A6676",
"-. c #6B6777",
";. c #6B6778",
":. c #6C6879",
">. c #6E6A7A",
",. c #6E6A7B",
"<. c #6F6A7C",
"1. c #6F6B7C",
"2. c #706C7E",
"3. c #625F84",
"4. c #636084",
"5. c #646186",
"6. c #67648B",
"7. c #68658D",
"8. c #726E80",
"9. c #747082",
"0. c #757184",
"q. c #767285",
"w. c #787487",
"e. c #797689",
"r. c #7A768A",
"t. c #7C798D",
"y. c #7D7A8E",
"u. c #7E7A8F",
"i. c #7E7B8F",
"p. c #6A6790",
"a. c #696891",
"s. c #6B6994",
"d. c #6C6A94",
"f. c #6D6B95",
"g. c #706E9A",
"h. c #716F9C",
"j. c #7F7C91",
"k. c #7372A0",
"l. c #7472A1",
"z. c #7473A2",
"x. c #7574A3",
"c. c #7776A7",
"v. c #7876A7",
"b. c #7776A8",
"n. c #7877A8",
"m. c #7978AA",
"M. c #7A79AB",
"N. c #7B7AAC",
"B. c #7A7AAD",
"V. c #7B7AAD",
"C. c #7D7CB1",
"Z. c #7E7DB1",
"A. c #7E7EB2",
"S. c #807D92",
"D. c #817E93",
"F. c #827E94",
"G. c #807FB5",
"H. c #848096",
"J. c #858298",
"K. c #868399",
"L. c #88859B",
"P. c #88859C",
"I. c #89869D",
"U. c #8A879E",
"Y. c #8B89A0",
"T. c #8C89A0",
"R. c #8C89A1",
"E. c #8D8BA2",
"W. c #8F8CA5",
"Q. c #908DA6",
"!. c #918EA6",
"~. c #928FA8",
"^. c #918FAC",
"/. c #9290A9",
"(. c #9391AB",
"). c #9593AD",
"_. c #9795AF",
"`. c #8080B6",
"'. c #8282B8",
"]. c #8282B9",
"[. c #8483BB",
"{. c #8484BB",
"}. c #8585BD",
"|. c #8585BE",
" X c #8585BF",
".X c #8686BF",
"XX c #8787BF",
"oX c #A09EBA",
"OX c #A2A0BC",
"+X c #8686C0",
"@X c #8687C0",
"#X c #8787C0",
"$X c #8787C1",
"%X c #8788C1",
"&X c #8888C1",
"*X c #8888C2",
"=X c #A7A6C5",
"-X c #A8A6C4",
";X c #ACABC9",
":X c #ADACCB",
">X c #A9A8D3",
",X c #B2B0D0",
"<X c #B2B1D1",
"1X c #B4B3D3",
"2X c #B5B4D5",
"3X c #B8B7D8",
"4X c #BAB9DA",
"5X c #BAB9DB",
"6X c #BCBBDC",
"7X c #BDBCDF",
"8X c #B3B3E3",
"9X c #BFBFE1",
"0X c #BABAE8",
"qX c #BABAE9",
"wX c #BCBCEB",
"eX c #C0C0E3",
"rX c #C1C1E4",
"tX c #C2C1E4",
"yX c #C2C2E5",
"uX c #C4C3E7",
"iX c #C6C5E9",
"pX c #C8C7EC",
"aX c #C8C8EC",
"sX c #C8C8ED",
"dX c #C9C9ED",
"fX c #CBCBF0",
"gX c #CBCBF1",
"hX c #CFCFF2",
"jX c #CECEF3",
"kX c #D0D0F6",
"lX c #D2D2FA",
"zX c #D4D4FB",
"xX c #D5D5FB",
"cX c #D6D6FB",
"vX c #D4D4FD",
"bX c #D5D5FD",
"nX c #D6D6FC",
"mX c #D7D7FD",
"MX c #D5D5FE",
"NX c #D6D6FE",
"BX c #D6D7FE",
"VX c #D6D6FF",
"CX c #D7D7FF",
"ZX c #D7D8FF",
"AX c #D8D8FE",
"SX c #D8D9FE",
"DX c #D8D8FF",
"FX c #D8D9FF",
"GX c #D9D9FF",
"HX c #D9DAFF",
"JX c #DADAFF",
"KX c #DCDCFF",
/* pixels */
"                                                      8X                                                                        ",
"                                                    |.0XmX                                                                      ",
"                                                  |.$X0XDXmX                                                                    ",
"                                                |.|.$X0XDXmX                                                                    ",
"                                                $X|.|.0XDXDXmX                                                                  ",
"                                              |.$X|.$X0XDXmXmXmX                                                                ",
"                                            &X|.|.|.|.0XDXmXmXmXmX                                                              ",
"                                          $X|.|.|.&X&X0XDXmXmXmXmXmX                                                            ",
"                                        $X|.|.&X|.$X$X0XDXmXmXmXmXmXmX                                                          ",
"                                      |.&X|.|.&X|.|.$X0XDXmXmXmXmXmXmX=X                                                        ",
"                                      |.|.|.|.|.$X|.|.0XDXmXmXmXDXDXgX! 2.                                                      ",
"                                    |.&X|.&X&X|.$X|.$X0XDXmXmXmXDXDX^.= T eX                                                    ",
"                                  |.|.|.&X|.|.|.|.|.|.wXDXmXmXmXDXyXF + 5 /.DX                                                  ",
"                                $X|.$X|.|.|.&X&X|.$X|.0XDXZXmXmXcX9.& = + U dX                                                  ",
"                              |.&X|.|.|.|.&X|.|.$X|.$X0XDXDXDXDXoXw = = ; = !.DX                                                ",
"                              |.|.|.&X&X|.|.&X|.|.|.$X0XDXDXDX6XF + = = & + I pXDX                                              ",
"                            |.&X|.|.&X|.|.|.&X|.|.XX|.0XDXDXdX` + = = = = = = Y.DXmX                                            ",
"                          $X|.&X|.&X|.|.&X|.&X|.|.*X*X0XDXjX=.+ = = = = = = + I iXmXmX                                          ",
"                        |.|.|.|.|.|.&X&X|.&X|.|.|.|.*XwXkX2.; ; = = = = = = = = P.DXmXmX                                        ",
"                      |.|.$X$X|.&X|.|.|.|.|.|.&X$X|.&X>X%.; ; & = = = = = = = + F uXmXmXmX                                      ",
"                    |.|.|.$X$X|.|.XX*X|.&X&X|.|.$X$Xh.J = = = = = = = = = = = = = K.DXmXmXmX                                    ",
"                    $X$X|.|.|.$X*X|.|.|.|.|.&X&XA.{ y + = = = = = = = = = = = = + D yXDXmXmXvX                                  ",
"                  / 3.B.|.&X%X%X*X$X*X*X$X|.M.X.N = % = = = = = = = = = = = = = = = D.DXmXmXmX                                  ",
"                  { 2 h Y X.a.z.n.x.z.a.X.Y h = + = = = = = = = = = = = = = = = = + M 9XDXmXmXmX                                ",
"                  M.x + + = 2 8 y y q 2 % + % = = = = = = = = = = = = = = = = = = = % j.mXmXmXmXmX                              ",
"                  $X[ + = = - * & % = & = = = = = = = = = = = = = = = = = = = = = = + M 9XDXmXmXmXmX                            ",
"                  |.x.i + = = = = = = = = = = = = = = = = = = = = = = = = = = = = = = & e.DXmXmXmXmXmX                          ",
"                  $X|.W & = = = = = = = = = = = = = = = = = = = = = = = = = = = = = = + n 5XDXmXmXmXmXmX                        ",
"                  |.&Xf.8 = = = = = = = = = = = = = = = = = = = = = = = = = = = = = = = + q.mXmXmXmXmXmXvX                      ",
"                  |.|.'.J + = = = = = = = = = = = = = + % = = % = = = = = = = = = = = = % c 3XDXmXmXmXmXmXmX                    ",
"                  |.$X&X5.2 = = = = = = = = = = = = = w s = + + % = % & = = = = = = = = = + 8.mXmXmXmXmXmXmXmX                  ",
"                  |.|.&XA.N + = = = = = = = = = = = + ' 1X!.&.F w % + % = = = = = = = = = % k 2XDXmXmXmXmXmXmX                  ",
"                  |.|.$X&X .; ; = = = = = = = = - % + @.DXDXmXdX;XK.' m 5 + + % ; ; * ; ; * ; >.cXDXZXmXmXmX                    ",
"                  |.|.|.&Xx.s + = = = = = = = = - % X @.mXmXmXDXDXDXcXyXoXe.Q k ; . . + * * ; s <XDXmXmXmX                      ",
"                  |.$X|.$X|.^ ; = = = = = = = = - - X @.mXmXmXmXZXmXmXDXDXDXlX5X_.2.I a + + + + =.mXmXmX                        ",
"                  |.|.|.$X$Xh.8 = = = = = = = = - - + &.mXmXmXmXZXmXmXmXDXmXmXDXDXZXgX<XT.@.C 7 a :XDX                          ",
"                  |.&X|.|.|.|.Y + = = = = = = = * - . %.mXmXmXmXmXmXmXmXDXmXmXmXmXmXDXDXDXmXiX-Xi.).mX                          ",
"                  |.&X|.&X|.&X7.2 = = = = = = = - * + =.ZXmXmXmXmXmXmXmXmXmXmXmXmXmXmXmXmXDXDXDXDXlX                            ",
"                  |.|.|.$X|.|.`.C & = = = = = = = = + ;.DXmXmXmXmXmXmXmXmXmXmXmXmXmXmXmXmXmXmXmXDX                              ",
"                  &X|.&X|.|.$X&XO.= = = = = = = = + + :.DXmXmXmXmXmXmXmXmXmXmXmXmXmXmXmXmXmXmXmX                                ",
"                    XX$X|.|.|.&XB.k + & = = = = = = + 1.mXmXmXmXmXmXmXmXmXmXmXmXmXmXmXmXmXmXmX                                  ",
"                      |.|.&X&X|.*X_ % % = = = = = = + 1.mXmXmXmXmXmXmXmXmXmXmXmXmXmXmXmXmXmX                                    ",
"                        |.&X|.|.$Xz.y % = = = = = = + 8.DXDXmXmXmXmXmXmXmXmXmXmXmXmXmXmXmX                                      ",
"                        &X|.|.&X$X|.R + = = = = = % + 8.DXDXmXmXmXmXmXmXmXmXmXmXmXmXmXmXmX                                      ",
"                          &X|.&X|.$Xd.8 = = = = = = + 9.DXmXmXmXmXmXmXmXmXmXmXmXmXmXmXmX                                        ",
"                            |.|.|.$X'.A & & = = = = + q.DXmXmXmXmXmXmXmXmXmXmXmXmXmXmX                                          ",
"                              |.$X|.%X4.= = = = = = + e.DXDXmXmXmXmXmXmXmXmXmXmXmXmX                                            ",
"                              XX%X|.%XA.N % = = & & + e.DXDXmXmXmXmXmXmXmXmXmXmXmX                                              ",
"                                &X|.|.$X| ; = = = = + t.KXDXZXmXmXmXmXmXmXmXmXmX                                                ",
"                                  |.&X&Xv.i + * = = + j.DXDXmXmXmXmXmXmXmXmXmXmX                                                ",
"                                    |.|.|.^ + * = & + j.DXDXmXmXmXmXmXmXmXmXmX                                                  ",
"                                    &X$X&Xg.q ; = % + j.DXmXmXmXmXmXmXmXmXmX                                                    ",
"                                      |.|.[.L & = = + F.DXDXmXmXmXmXmXmXmX                                                      ",
"                                        |.$X6.2 = = % F.DXDXmXmXmXmXmXmX                                                        ",
"                                        &X%XG.V % = + K.DXDXmXmXmXmXmX                                                          ",
"                                          |.&XX.= = % P.KXDXmXmXmXmX                                                            ",
"                                            $XB.h ; + P.DXmXmXmXmXmX                                                            ",
"                                              $X( + ; U.DXmXmXmXmX                                                              ",
"                                              &Xz.w + T.KXDXDXDX                                                                ",
"                                                |.R + E.DXDXDX                                                                  ",
"                                                  p.5 Q.DXDX                                                                    ",
"                                                  A.Z !.DX                                                                      ",
"                                                    / ).KX                                                                      ",
"                                                      ^.                                                                        "
};
