/* XPM */
static char *a8048377a2e94da5f587e8b180dcd30esVLiTjk2mcIFA6yL[] = {
/* columns rows colors chars-per-pixel */
"16 16 179 2 ",
"   c None",
".  c #323032",
"X  c #373332",
"o  c #383433",
"O  c #33343A",
"+  c #35373B",
"@  c #37363A",
"#  c #33353C",
"$  c #32363C",
"%  c #33363D",
"&  c #30353F",
"*  c #31363F",
"=  c #36373D",
"-  c #393739",
";  c #38373A",
":  c #3B393A",
">  c #38383C",
",  c #3C3A3C",
"<  c #3F3C3E",
"1  c #3F3F3E",
"2  c #403D3D",
"3  c #413E3F",
"4  c #0D2443",
"5  c #0F2748",
"6  c #162943",
"7  c #112847",
"8  c #142946",
"9  c #152A46",
"0  c #152B47",
"q  c #1C2E45",
"w  c #1E2E45",
"e  c #122A49",
"r  c #152B49",
"t  c #122B4D",
"y  c #182E4B",
"u  c #1E314B",
"i  c #153156",
"p  c #1F3551",
"a  c #183457",
"s  c #193557",
"d  c #1D3556",
"f  c #1E395B",
"g  c #1F3A5B",
"h  c #1F3A5E",
"j  c #212E41",
"k  c #202E43",
"l  c #253040",
"z  c #253245",
"x  c #263245",
"c  c #2B3647",
"v  c #2E3645",
"b  c #20324B",
"n  c #27354A",
"m  c #22364C",
"M  c #2C3749",
"N  c #2E3A4A",
"B  c #2E3A4B",
"V  c #2E3D4B",
"C  c #353A44",
"Z  c #353A45",
"A  c #383C40",
"S  c #303949",
"D  c #313B49",
"F  c #303C4D",
"G  c #323D4E",
"H  c #243850",
"J  c #253E5F",
"K  c #1B3960",
"L  c #1B3961",
"P  c #1C3A61",
"I  c #1D3B61",
"U  c #1E3B60",
"Y  c #1F3B60",
"T  c #1D3B62",
"R  c #1D3B63",
"E  c #1D3D66",
"W  c #223F64",
"Q  c #423F40",
"!  c #3F4247",
"~  c #3D434B",
"^  c #39424F",
"/  c #3C434D",
"(  c #314051",
")  c #3D4753",
"_  c #244061",
"`  c #2B4361",
"'  c #204068",
"]  c #204169",
"[  c #244268",
"{  c #2A476A",
"}  c #29476C",
"|  c #2E4B6D",
" . c #334B67",
".. c #394E65",
"X. c #354F69",
"o. c #2F4D71",
"O. c #2B4C7B",
"+. c #304E73",
"@. c #385474",
"#. c #3C5775",
"$. c #3D5979",
"%. c #414041",
"&. c #434040",
"*. c #474241",
"=. c #454444",
"-. c #4A4440",
";. c #434D4B",
":. c #494A4D",
">. c #4B4D4F",
",. c gray30",
"<. c #485048",
"1. c #5D5242",
"2. c #5C5243",
"3. c #5F5342",
"4. c #424651",
"5. c #474A52",
"6. c #474C52",
"7. c #4B4B50",
"8. c #43545A",
"9. c #4A555F",
"0. c #4E575D",
"q. c #4F5D5A",
"w. c #515151",
"e. c #5F5950",
"r. c #565959",
"t. c #635642",
"y. c #695A4C",
"u. c #67625E",
"i. c #706757",
"p. c #786A53",
"a. c #475065",
"s. c #4A5661",
"d. c #4A5763",
"f. c #47526A",
"g. c #465B6B",
"h. c #435A6C",
"j. c #4B5B6B",
"k. c #4E5E6E",
"l. c #505567",
"z. c #565F66",
"x. c #455C71",
"c. c #465C71",
"v. c #4C5F72",
"b. c #485D75",
"n. c #485E77",
"m. c #465F7A",
"M. c #53626C",
"N. c #5A676E",
"B. c #4C6075",
"V. c #4C6279",
"C. c #4D647D",
"Z. c #526477",
"A. c #5C6D77",
"S. c #526379",
"D. c #566A7C",
"F. c #576C7C",
"G. c #5E717F",
"H. c #676D6C",
"J. c #686E6D",
"K. c #796D64",
"L. c #71736C",
"P. c #77786F",
"I. c #8E714A",
"U. c #857255",
"Y. c #8D795B",
"T. c #9C836C",
"R. c #8A8370",
"E. c #85887D",
"W. c #6F7E82",
"Q. c #6F7F84",
"!. c #667C95",
"~. c #657499",
"^. c #7D8096",
"/. c #7B8AA5",
"(. c #ACAD98",
"). c #BCBEA5",
"_. c #B2BCB9",
"`. c #BEC4B6",
"'. c #85A7D4",
/* pixels */
"            O > ;               ",
"        ; ; * O + = , ;         ",
"      + k S C * & C D j ,       ",
"    A 0 0 k 6 4 5 8 w 7 w 3     ",
"  ;.m y C =.c 4.f.f.:.v t V <.  ",
"  8.a H e.I.U.l.~.Q.K.w.p a q.  ",
"g.X._ g H.s.R.!.'.'.S.M.g h h.  ",
"V.o.{ T Q.x. .`._.W D.A.L ' #.B.",
"C.o.} h W.x.o.).(.J F.G.T E $.n.",
"m.@.' J H.k.E.J.P.K.k.H.J R m.  ",
"  b.L W u.T.Y.) 5.p.i.r.J R S.  ",
"  j.` d 7.y.%.1.1.1.t.G i ..d.  ",
"    9.G B b r e e r u n G 0.    ",
"      >.~ G M z z B ^ :.>.      ",
"        %.%.Q < 3 *.-.3         ",
"            . o X               "
};
