/* XPM */
static char *b45e5b2368494e5aa2634b6c56aee437zaci4mWoeDWpRATF[] = {
/* columns rows colors chars-per-pixel */
"32 32 155 2 ",
"   c None",
".  c #211918",
"X  c #211919",
"o  c #221919",
"O  c #221A19",
"+  c #221A1A",
"@  c #231A1A",
"#  c #231B1A",
"$  c #231B1B",
"%  c #241C1B",
"&  c #241C1C",
"*  c #241C1D",
"=  c #251D1D",
"-  c #251D1E",
";  c #251E1E",
":  c #261E1E",
">  c #261E1F",
",  c #271F1F",
"<  c #271F20",
"1  c #271F21",
"2  c #272020",
"3  c #272021",
"4  c #282021",
"5  c #282122",
"6  c #292122",
"7  c #282124",
"8  c #292124",
"9  c #292225",
"0  c #2B2325",
"q  c #2B2425",
"w  c #2C2429",
"e  c #2D262C",
"r  c #2E272D",
"t  c #2F272E",
"y  c #322B2E",
"u  c #312A30",
"i  c #312A32",
"p  c #362F3A",
"a  c #383136",
"s  c #3A3338",
"d  c #39333F",
"f  c #3C3541",
"g  c #3B3544",
"h  c #3D3745",
"j  c #413B41",
"k  c #423C43",
"l  c #453F47",
"z  c #423C4D",
"x  c #48424A",
"c  c #4B454E",
"v  c #4C464F",
"b  c #464155",
"n  c #4D4751",
"m  c #4E4852",
"M  c #4C475E",
"N  c #534D58",
"B  c #58535F",
"V  c #59545F",
"C  c #504C66",
"Z  c #504C67",
"A  c #534E66",
"S  c #585360",
"D  c #565270",
"F  c #595675",
"G  c #5B5777",
"H  c #5B5878",
"J  c #5B5879",
"K  c #5D5A7C",
"L  c #5E5B7D",
"P  c #686473",
"I  c #6B6676",
"U  c #656288",
"Y  c #747081",
"T  c #696790",
"R  c #6E6C97",
"E  c #6F6E9A",
"W  c #706E9B",
"Q  c #72709E",
"!  c #7674A4",
"~  c #7675A5",
"^  c #7877A8",
"/  c #7978AA",
"(  c #7B7AAD",
")  c #7F7EB3",
"_  c #807FB5",
"`  c #88849B",
"'  c #8B88A0",
"]  c #8C89A0",
"[  c #8F8CA5",
"{  c #928FA7",
"}  c #9390A9",
"|  c #9794AE",
" . c #9795AF",
".. c #8080B6",
"X. c #8180B7",
"o. c #8383BA",
"O. c #8484BC",
"+. c #8585BF",
"@. c #8685BE",
"#. c #8686BF",
"$. c #9896B0",
"%. c #9996B0",
"&. c #9A98B3",
"*. c #9C99B4",
"=. c #9D9BB5",
"-. c #9D9BB6",
";. c #9997B9",
":. c #9F9DB8",
">. c #A09EBA",
",. c #A29FBC",
"<. c #A3A1BE",
"1. c #A2A0BF",
"2. c #A5A3BF",
"3. c #8686C0",
"4. c #8687C0",
"5. c #8787C0",
"6. c #8787C1",
"7. c #8788C1",
"8. c #8888C2",
"9. c #8A8AC2",
"0. c #8A8AC3",
"q. c #8B8BC4",
"w. c #A6A4C1",
"e. c #A8A6C3",
"r. c #A9A7C5",
"t. c #A9A8C6",
"y. c #ADACCA",
"u. c #AEACCB",
"i. c #B4B3D4",
"p. c #B6B5D5",
"a. c #B7B6D7",
"s. c #BEBDDF",
"d. c #BCBCEA",
"f. c #C2C1E5",
"g. c #C5C5E9",
"h. c #C7C7EB",
"j. c #C8C8EC",
"k. c #C9C8ED",
"l. c #C9C9ED",
"z. c #CBCAEF",
"x. c #C4C4F0",
"c. c #C5C5F1",
"v. c #C7C7F4",
"b. c #CECEF3",
"n. c #D5D5F9",
"m. c #D4D4FA",
"M. c #D5D4FC",
"N. c #D6D6FE",
"B. c #D6D7FE",
"V. c #D6D6FF",
"C. c #D7D7FF",
"Z. c #D8D8FF",
"A. c #D9D9FF",
"S. c #DADAFF",
"D. c #DADBFF",
/* pixels */
"                            d.                                  ",
"                          8.c.                                  ",
"                        6.q.k.Z.                                ",
"                      #.#.8.c.C.C.                              ",
"                    #.#.#.8.c.C.C.C.                            ",
"                    #.#.#.8.c.C.D.p.S                           ",
"                  #.#.#.#.q.c.D.m.I 8 `                         ",
"                #.#.#.#.#.q.c.D.| 7 . N z.                      ",
"              #.#.#.#.#.#.8.v.y.s # # < | D.                    ",
"            #.#.#.#.#.#.6.q.;.j # # - # n z.C.                  ",
"          X.6.6.6.6.6.8...K y # $ $ % * - } Z.C.                ",
"          Z H E ^ ^ W H g * # - $ - % - # v z.C.                ",
"          F - 7 t t 8 % $ % * $ - # - # * - { D.C.              ",
"          ( p # # # % $ $ - $ # $ - # - # # x g.D.C.            ",
"          6.D # # * $ - % $ # # # $ - # * * - ] Z.C.C.          ",
"          6.~ t $ * * $ - - B V a - # # # # # l g.C.Z.C.        ",
"          #.#.M % % % * % - | n.d.=.I N y * # # ` Z.C.          ",
"          #.6.R 7 % * % % * %.D.A.A.D.b.i.{ P j v f.            ",
"          #.#.o.z % % * * - *.D.C.C.D.Z.Z.D.C.k.u.i.            ",
"          #.#.7.U - * % % , *.S.C.C.C.C.C.C.C.D.D.              ",
"            #.6._ d % % % , -.Z.C.C.C.C.C.C.C.C.                ",
"              #.5.G * % * , >.D.C.C.C.C.C.C.C.                  ",
"              6.5.^ i # * , >.D.C.C.C.C.C.C.                    ",
"                6.@.C # * < >.D.C.C.C.C.C.                      ",
"                  5.Q w # < ,.D.C.C.C.C.                        ",
"                  5.#.b # 8 2.D.C.C.C.C.                        ",
"                    8.T - 8 2.D.C.C.C.                          ",
"                      X.h 8 e.D.C.C.                            ",
"                        L 7 r.D.C.                              ",
"                        ! f r.D.                                ",
"                          A t.                                  ",
"                            1.                                  "
};
