<?xml version="1.0" standalone="no"?>
<!DOCTYPE svg PUBLIC "-//W3C//DTD SVG 20010904//EN"
 "http://www.w3.org/TR/2001/REC-SVG-20010904/DTD/svg10.dtd">
<svg version="1.0" xmlns="http://www.w3.org/2000/svg"
 width="256.000000pt" height="256.000000pt" viewBox="0 0 256.000000 256.000000"
 preserveAspectRatio="xMidYMid meet">

<g transform="translate(0.000000,256.000000) scale(0.100000,-0.100000)"
fill="#000000" stroke="none">
<path d="M0 1280 l0 -1280 1280 0 1280 0 0 1280 0 1280 -1280 0 -1280 0 0
-1280z m1444 1125 c267 -44 503 -177 686 -388 175 -201 256 -386 279 -638 33
-356 -109 -708 -383 -948 -230 -201 -493 -291 -810 -278 -261 11 -460 86 -671
251 -286 225 -455 620 -416 974 29 265 104 436 280 639 105 121 222 213 356
281 212 107 450 145 679 107z"/>
<path d="M1115 2384 c-73 -11 -211 -48 -273 -73 -320 -134 -533 -379 -635
-734 -30 -107 -32 -120 -32 -287 0 -151 4 -187 24 -265 25 -95 80 -233 124
-307 110 -188 323 -373 522 -454 163 -66 231 -79 425 -79 158 1 185 4 273 28
408 110 723 450 802 866 20 101 19 317 -1 421 -26 139 -96 308 -181 439 -48
73 -181 205 -262 260 -100 68 -246 133 -381 168 -54 13 -343 26 -405 17z m41
-181 c-10 -10 -19 5 -10 18 6 11 8 11 12 0 2 -7 1 -15 -2 -18z m44 11 c0 -8
-4 -12 -10 -9 -5 3 -10 10 -10 16 0 5 5 9 10 9 6 0 10 -7 10 -16z m176 -22
c-9 -8 -26 10 -26 26 1 15 2 15 15 -2 8 -11 13 -21 11 -24z m102 7 c2 -19 -2
-28 -8 -24 -11 7 -14 38 -3 48 9 10 8 10 11 -24z m-498 -11 c24 -31 24 -31 2
-26 -14 4 -25 1 -31 -9 -4 -9 -13 -13 -20 -9 -18 11 -13 26 12 35 19 8 20 10
5 16 -21 8 -24 25 -5 24 6 0 23 -14 37 -31z m570 20 c0 -19 -18 -44 -25 -36
-4 3 0 15 7 27 15 24 18 26 18 9z m70 3 c0 -6 -4 -13 -10 -16 -5 -3 -10 -17
-10 -30 0 -25 -15 -42 -24 -27 -6 10 26 81 37 82 4 0 7 -4 7 -9z m-564 -48
c-2 -3 -9 -2 -15 2 -8 4 -7 13 1 28 l13 22 3 -23 c2 -13 1 -26 -2 -29z m634
15 c0 -14 -30 -48 -42 -48 -5 0 -2 14 7 30 16 30 35 40 35 18z m-830 -22 c0
-2 3 -11 6 -20 9 -22 -13 -20 -38 4 l-22 20 27 0 c15 0 27 -2 27 -4z m859 -30
c-7 -14 -19 -26 -26 -26 -15 0 -10 15 16 41 21 22 24 17 10 -15z m-716 -382
c21 -27 56 -74 77 -104 77 -107 135 -187 164 -223 27 -33 30 -35 42 -19 9 12
9 21 2 29 -15 19 20 83 93 169 64 75 79 86 79 59 0 -12 14 -15 70 -15 39 0 70
-4 70 -10 0 -5 -14 -29 -30 -52 -17 -24 -54 -76 -82 -117 -28 -41 -68 -97 -90
-125 -21 -28 -38 -58 -38 -66 0 -8 19 -41 43 -72 109 -148 206 -299 193 -304
-7 -3 -40 -4 -72 -2 l-59 3 -53 75 c-29 41 -70 101 -93 133 -22 31 -44 57 -49
57 -5 0 -37 -39 -71 -87 -68 -96 -106 -149 -192 -265 l-57 -78 -104 0 -103 0
-6 113 c-9 144 -9 733 -1 858 l7 97 111 -2 111 -2 38 -50z m794 43 c10 -17 17
-716 8 -902 l-7 -155 -365 0 -364 0 22 40 c13 22 27 40 33 40 6 0 137 0 291 0
154 0 286 4 293 8 9 7 12 104 10 453 l-3 444 -35 -2 c-51 -2 -459 -1 -502 1
-21 2 -39 4 -41 7 -2 2 -13 17 -25 33 -12 16 -22 33 -22 38 0 14 698 10 707
-5z m-1275 -139 c-71 -152 -101 -364 -71 -495 30 -131 43 -172 67 -223 32 -68
109 -184 151 -227 43 -45 39 -55 -5 -12 -34 32 -124 144 -124 154 0 2 -13 26
-28 52 -24 42 -42 90 -83 227 -18 57 -11 276 11 356 25 92 45 145 72 188 28
46 35 32 10 -20z m1568 -146 c0 -7 -4 -10 -10 -7 -5 3 -10 16 -10 28 0 18 2
19 10 7 5 -8 10 -21 10 -28z m-5 -452 c-4 -12 -9 -19 -12 -17 -3 3 -2 15 2 27
4 12 9 19 12 17 3 -3 2 -15 -2 -27z m-1380 -540 c10 8 15 9 15 1 0 -6 -4 -11
-9 -11 -5 0 -12 -10 -16 -22 l-8 -23 -4 23 c-2 12 -11 22 -19 22 -15 0 -19 12
-7 24 4 4 13 -1 20 -10 10 -14 15 -15 28 -4z m1139 -27 c12 -16 14 -24 6 -21
-16 5 -46 48 -34 48 5 0 18 -12 28 -27z m-69 -13 c3 -5 1 -10 -4 -10 -6 0 -11
5 -11 10 0 6 2 10 4 10 3 0 8 -4 11 -10z m-985 -35 c-13 -14 -27 -25 -32 -25
-4 0 -2 11 4 25 6 15 20 25 31 25 20 0 19 -1 -3 -25z m950 -2 c0 -25 0 -26
-20 -8 -11 10 -20 22 -20 27 0 4 9 8 20 8 15 0 20 -7 20 -27z m60 -16 c0 -20
-1 -20 -16 -5 -9 9 -13 21 -9 27 10 16 25 3 25 -22z m-910 13 c0 -5 -7 -10
-15 -10 -8 0 -15 -9 -15 -19 0 -18 -17 -38 -25 -29 -8 8 28 68 41 68 8 0 14
-4 14 -10z m16 -38 c-8 -9 -18 -13 -22 -10 -8 9 19 37 29 31 5 -3 2 -12 -7
-21z m739 -14 c5 -18 3 -28 -4 -28 -14 0 -33 48 -25 62 9 13 21 -1 29 -34z
m-651 13 c3 -5 -1 -14 -9 -21 -8 -7 -15 -10 -15 -7 0 3 -3 12 -6 21 -7 17 20
23 30 7z m560 -7 c24 -9 19 -26 -5 -19 -14 5 -25 2 -30 -6 -7 -11 -9 -11 -9 3
0 9 6 19 13 21 6 3 13 6 14 6 1 1 8 -2 17 -5z m-504 -54 c-6 -12 -14 -19 -17
-17 -2 3 1 15 7 27 6 12 14 19 17 17 2 -3 -1 -15 -7 -27z m69 -3 c0 -21 -1
-21 -9 -2 -12 28 -12 37 0 30 6 -3 10 -16 9 -28z m301 19 c0 -3 -4 -8 -10 -11
-5 -3 -10 -1 -10 4 0 6 5 11 10 11 6 0 10 -2 10 -4z m-249 -37 c-9 -22 -10
-22 -10 -3 -1 11 2 24 6 27 12 12 14 0 4 -24z m369 16 c0 -8 -4 -15 -10 -15
-5 0 -10 7 -10 15 0 8 5 15 10 15 6 0 10 -7 10 -15z m-115 -14 c3 -5 1 -12 -5
-16 -5 -3 -10 1 -10 9 0 18 6 21 15 7z"/>
<path d="M827 1713 c-8 -14 -2 -868 6 -880 5 -7 14 -13 22 -13 20 0 68 67 59
81 -4 8 -3 9 4 5 7 -4 23 11 39 36 15 24 30 45 33 48 6 5 37 51 55 82 5 9 31
45 56 80 25 35 54 77 64 94 l18 32 -85 123 c-47 68 -115 168 -152 222 -53 77
-72 97 -91 97 -13 0 -26 -3 -28 -7z"/>
</g>
</svg>
