/* XPM */
static char *bcfcc58f041648d2c0fa3d0487160edfLYsYbsV1S6gncJBj[] = {
/* columns rows colors chars-per-pixel */
"32 32 199 2 ",
"   c None",
".  c #0B172D",
"X  c #141D2E",
"o  c #101D33",
"O  c #0C1E3B",
"+  c #0F213D",
"@  c #13233C",
"#  c #1D293C",
"$  c #1A2539",
"%  c #232D3D",
"&  c #292F3C",
"*  c #2B2C33",
"=  c #2E323E",
"-  c #34353D",
";  c #3C3A3C",
":  c #3B3736",
">  c #423D3B",
",  c #433D37",
"<  c #4B423B",
"1  c #4A433A",
"2  c #564835",
"3  c #5B4936",
"4  c #53493C",
"5  c #5A4B3A",
"6  c #534539",
"7  c #5F503F",
"8  c #66573F",
"9  c #0C2445",
"0  c #0A254A",
"q  c #0E294C",
"w  c #072246",
"e  c #112542",
"r  c #142945",
"t  c #1D2C44",
"y  c #132B4B",
"u  c #1B2E4A",
"i  c #1E304A",
"p  c #1F3047",
"a  c #0D2C54",
"s  c #0E2F59",
"d  c #122E53",
"f  c #102F58",
"g  c #0F305D",
"h  c #153055",
"j  c #1A3354",
"k  c #14335C",
"l  c #1A375D",
"z  c #1D395C",
"x  c #212E43",
"c  c #243144",
"v  c #2B3342",
"b  c #25344A",
"n  c #2B384B",
"m  c #2F3848",
"M  c #343741",
"N  c #343A44",
"B  c #3A3B42",
"V  c #323E4D",
"C  c #393F4A",
"Z  c #213756",
"A  c #2A3B52",
"S  c #223B5B",
"D  c #253956",
"F  c #0F3161",
"G  c #133562",
"H  c #163866",
"J  c #1B3A63",
"K  c #163A69",
"L  c #1A3D6A",
"P  c #183660",
"I  c #163E78",
"U  c #183E75",
"Y  c #223E61",
"T  c #2F404E",
"R  c #3B4145",
"E  c #3D444E",
"W  c #37414F",
"Q  c #2B415C",
"!  c #3A4352",
"~  c #344559",
"^  c #3A4A5D",
"/  c #384858",
"(  c #1E416D",
")  c #1C447B",
"_  c #264166",
"`  c #2C4565",
"'  c #2A4668",
"]  c #314763",
"[  c #344B64",
"{  c #314C6B",
"}  c #3C4F65",
"|  c #3C516A",
" . c #3D5673",
".. c #3D5779",
"X. c #2A4D76",
"o. c #424343",
"O. c #41474E",
"+. c #494945",
"@. c #524D48",
"#. c #4F5046",
"$. c #5C564D",
"%. c #5F5345",
"&. c #464D52",
"*. c #494D51",
"=. c #465257",
"-. c #555857",
";. c #6B5843",
":. c #6F5E48",
">. c #645340",
",. c #745D41",
"<. c #655F54",
"1. c #596456",
"2. c #766149",
"3. c #776858",
"4. c #6F6F51",
"5. c #44586B",
"6. c #445A73",
"7. c #455B74",
"8. c #5B6265",
"9. c #5A656D",
"0. c #4D647B",
"q. c #4B6277",
"w. c #566676",
"e. c #5D707E",
"r. c #676B68",
"t. c #796D6D",
"y. c #6B756B",
"u. c #797665",
"i. c #666C74",
"p. c #62727B",
"a. c #7B7377",
"s. c #AE7E3C",
"d. c #A3773D",
"f. c #8E7756",
"g. c #937C58",
"h. c #906F48",
"j. c #A37D48",
"k. c #8B7362",
"l. c #877B78",
"z. c #7C857F",
"x. c #7C8575",
"c. c #B3813E",
"v. c #96815C",
"b. c #B78748",
"n. c #B58857",
"m. c #B2915C",
"M. c #A78552",
"N. c #948567",
"B. c #878779",
"V. c #9A9177",
"C. c #AE8D70",
"Z. c #BBA474",
"A. c #D5A85F",
"S. c #C19769",
"D. c #DDBD7D",
"F. c #D2AB6B",
"G. c #1E4A92",
"H. c #3F5F8C",
"J. c #244C84",
"K. c #3A6299",
"L. c #5B7085",
"P. c #616F8C",
"I. c #667988",
"U. c #677A90",
"Y. c #3D74C9",
"T. c #8E7F83",
"R. c #6F8084",
"E. c #788387",
"W. c #7A8893",
"Q. c #7D95A0",
"!. c #788CC0",
"~. c #72A7DC",
"^. c #888C83",
"/. c #8E978E",
"(. c #9D9E88",
"). c #909B92",
"_. c #908A99",
"`. c #92A099",
"'. c #A2A899",
"]. c #BAB899",
"[. c #8F9CA0",
"{. c #A7ACA9",
"}. c #B0BEBB",
"|. c #C3B58A",
" X c #CFBB8B",
".X c #C7BFA1",
"XX c #D3C08B",
"oX c #CEC79D",
"OX c #E5CE92",
"+X c #C9C9A8",
"@X c #D4D3AF",
"#X c #E8DFB3",
"$X c #ECE7BE",
"%X c #99C6F3",
"&X c #D0D3C6",
"*X c #E3CEC5",
"=X c #F6F3CB",
"-X c #FDFCDC",
";X c #E7E6E6",
/* pixels */
"                                                                ",
"                      O % - > 1 1 > - #                         ",
"                  $ > 5 5 < ; - - > < 5 5 ; @                   ",
"              @ , 3 ; $ + @ % % = # @ $ % < 3 -                 ",
"            # 2 ; r u E O.C o.B o.M o.O.W c $ 6 1 @             ",
"          c 3 x w 9 O.C B ; = M = = B N E ! w 9 > 2 r           ",
"        p 3 t w w 9 v - % e e 9 9 @ r % - x 0 w w ; 4 e         ",
"      y 5 v 0 0 y - x e y 9 e 0 q q q w y c x y 0 0 1 4         ",
"      #.1 a a r M r w 9 0 0 0 a g F g F g w t c q a q 8 R       ",
"    n 4.d a q T p 7 2.,.N B 2.3.t.t.a.I.3.2.+.u b a a T 4.r     ",
"    1.=.a a T b u b.d.c.j.V 3.k.l.T._.T.k.n.h.q n j d a 4.=.    ",
"  j x.z s Z &.h z m.#.<.A.k.G I G.Y.Q.P.U u.f.d i ~ k s =.y.    ",
"  [ y.F G ~ Q h Q Z.8.j N.D.q.J.Y.%X*XT.) a.N.k k ~ z G ( x.j   ",
"  w.w.F ( | z k D ].9.a ~ |.+XK.~.;X{.G.I ^.V.k l Q ' G J z.[   ",
"  e.6.H ( 5.z l Q +Xe.k k 9.#X}.&X*XK.I K ^.(.l z ( { K K R.6.  ",
"  I...K ( | J ( _ +Xe.k z ( `.-X=XU.U U J ).`.l z z { K K R.q.  ",
"  U...K L 6.P P ' +Xp.g k ( [.=X=X7.J J l `.{.l J J { ( G U.q.  ",
"  P.7.J L 7.l P _ oXp.k l 0.@X|.oX].` P k ).'.l z ( { K G W.6.  ",
"  0.L.G H 6.Y P Y ].i.k X.]. X^ 8.OXB.l k ^.(.l l ' ' K L W.[   ",
"   .U.P G { ] l j Z.9.( z.D.r.k h N.D.8.a B.V.k k ] ( l ' W.j   ",
"  z E._ G J 5.l D m.i.i.F.g.h a f D N.v.Z u.N.h z ` G G 0.I.    ",
"    w.0.g k Y A Z m.C.S.n.! &.&.*.*.@.@.@.g.f.h ~ z k k E.}     ",
"    ` I.k a k ] A h.n.j.+.%.c.s.s.s.s.s.s.c.,.Z S k s | E.e     ",
"      8.i.a d Z ! m v m y p c c c c c c c c n D d a h B./       ",
"      u a.} y M b A b d y 0 y q y q y 0 d b b c b q r.8.        ",
"        b u.! p @.b b m x u y e y y u b c i n m p -.r.@         ",
"          n 3.E b ! &.A c x x v x x t b A =.&.m <.4.@           ",
"            c <.$.c b m ! E n b c C ! *.&.b C 3.$.O             ",
"              @ +.:.@.v t M M = ; N v v B ;.:.-                 ",
"                  $ > 8 ;.5 4 < < 4 8 ;.%.; .                   ",
"                      . X * : , , : * X                         ",
"                                                                "
};
