/* XPM */
static char *d0850ec3309d4680a0315d545cfe0521IakGpsQ8bnZpaDfW[] = {
/* columns rows colors chars-per-pixel */
"64 64 246 2 ",
"   c None",
".  c #070F1A",
"X  c #06152A",
"o  c #011534",
"O  c #03193D",
"+  c #0C1D3C",
"@  c #081938",
"#  c #040F21",
"$  c #0E213C",
"%  c #13233D",
"&  c #1A243C",
"*  c #1D2A3B",
"=  c #232B3D",
"-  c #282C3B",
";  c #2E313D",
":  c #2F3336",
">  c #34343C",
",  c #3A363C",
"<  c #3C3A3C",
"1  c #373637",
"2  c #433D3A",
"3  c #473D37",
"4  c #443B2E",
"5  c #4B423A",
"6  c #4B4237",
"7  c #574938",
"8  c #554C36",
"9  c #7A5A2D",
"0  c #69543A",
"q  c #755A38",
"w  c #655035",
"e  c #7A653B",
"r  c #041D42",
"t  c #0B1E42",
"y  c #062145",
"u  c #0B2445",
"i  c #06224C",
"p  c #0B254B",
"a  c #0D294C",
"s  c #122443",
"d  c #1B2B44",
"f  c #132B4C",
"g  c #1B2D4C",
"h  c #142746",
"j  c #0A2652",
"k  c #0D2B54",
"l  c #0E2D5B",
"z  c #122D54",
"x  c #112E59",
"c  c #1A2E52",
"v  c #153155",
"b  c #14335B",
"n  c #19365D",
"m  c #1A385F",
"M  c #1C3355",
"N  c #173054",
"B  c #222C43",
"V  c #282E40",
"C  c #2C3444",
"Z  c #23334C",
"A  c #2A3649",
"S  c #343A43",
"D  c #333C4C",
"F  c #373A46",
"G  c #2C3B52",
"H  c #243959",
"J  c #313E53",
"K  c #0F3264",
"L  c #0E346D",
"P  c #133563",
"I  c #163965",
"U  c #1B3A62",
"Y  c #163A6A",
"T  c #193C69",
"R  c #173764",
"E  c #143B73",
"W  c #173D74",
"Q  c #213D62",
"!  c #283E60",
"~  c #433D40",
"^  c #3C434A",
"/  c #2D425B",
"(  c #3A4656",
")  c #1B447C",
"_  c #1D4374",
"`  c #1F416B",
"'  c #23436B",
"]  c #2C466B",
"[  c #2C496D",
"{  c #2B4464",
"}  c #324B6C",
"|  c #334A64",
" . c #3B526B",
".. c #344D74",
"X. c #395677",
"o. c #23477B",
"O. c #434243",
"+. c #42444B",
"@. c #4B4948",
"#. c #544C44",
"$. c #5A5647",
"%. c #444C53",
"&. c #4A4C55",
"*. c #4C545C",
"=. c #585958",
"-. c #4D5045",
";. c #675A46",
":. c #685D4D",
">. c #5A615B",
",. c #6C614E",
"<. c #656149",
"1. c #796448",
"2. c #7B7549",
"3. c #696356",
"4. c #736957",
"5. c #7D7657",
"6. c #6C7358",
"7. c #485768",
"8. c #525C68",
"9. c #495B74",
"0. c #4C4F63",
"q. c #576269",
"w. c #536473",
"e. c #566879",
"r. c #516476",
"t. c #686B65",
"y. c #767568",
"u. c #68757B",
"i. c #787E7A",
"p. c #676F6C",
"a. c #976A28",
"s. c #886639",
"d. c #966D38",
"f. c #9C733D",
"g. c #8D6629",
"h. c #AF7B35",
"j. c #A57838",
"k. c #B17D35",
"l. c #B47D3D",
"z. c #A3732B",
"x. c #856C49",
"c. c #9B7745",
"v. c #917D59",
"b. c #A57C43",
"n. c #B67C41",
"m. c #867C64",
"M. c #B9843D",
"N. c #AD8A32",
"B. c #C88D3B",
"V. c #CC903D",
"C. c #C4AB3E",
"Z. c #9B855A",
"A. c #928B4A",
"S. c #AB844A",
"D. c #BA8A47",
"F. c #A68758",
"G. c #BD8D58",
"H. c #BD9453",
"J. c #B9B256",
"K. c #878367",
"L. c #948672",
"P. c #97977E",
"I. c #8F8A70",
"U. c #BD946B",
"Y. c #BE9773",
"T. c #AA9170",
"R. c #B7A96F",
"E. c #CC9549",
"W. c #D29541",
"Q. c #D59B4B",
"!. c #C79858",
"~. c #D19A56",
"^. c #C48D47",
"/. c #D7A65A",
"(. c #C4BA4E",
"). c #CC9A65",
"_. c #CE9C76",
"`. c #CBA76A",
"'. c #D9AA67",
"]. c #DDB268",
"[. c #D7B87B",
"{. c #CAB077",
"}. c #E4B56C",
"|. c #E3BC77",
" X c #E1AC6E",
".X c #EBC277",
"XX c #D0CB78",
"oX c #173F80",
"OX c #1B4785",
"+X c #1B4C9C",
"@X c #224E90",
"#X c #386BB3",
"$X c #315AA3",
"%X c #515984",
"&X c #5B6D84",
"*X c #4D6889",
"=X c #727C84",
"-X c #657185",
";X c #5876AB",
":X c #3767CB",
">X c #457AD5",
",X c #738492",
"<X c #6186A8",
"1X c #5AA1E4",
"2X c #7ACFFC",
"3X c #959D98",
"4X c #90968B",
"5X c #9CA597",
"6X c #9EA388",
"7X c #ACA787",
"8X c #B5B796",
"9X c #B3AF8E",
"0X c #9CA7A1",
"qX c #B6BAA8",
"wX c #B8BEB3",
"eX c #A8B0A9",
"rX c #A09C88",
"tX c #CDAF8C",
"yX c #C0AEB3",
"uX c #BCC1B3",
"iX c #D4C895",
"pX c #E7C886",
"aX c #EBD79A",
"sX c #F3D997",
"dX c #E9CF91",
"fX c #C7C7A8",
"gX c #C5C8B7",
"hX c #D6D7BE",
"jX c #D1D1B0",
"kX c #E5D7A6",
"lX c #E8D6AE",
"zX c #F7E5A8",
"xX c #E8E6B9",
"cX c #F4EAB6",
"vX c #FBF2BC",
"bX c #EEE4AA",
"nX c #A1ADD0",
"mX c #A9CDE2",
"MX c #D5D8C5",
"NX c #E8D4CC",
"BX c #FAF7CB",
"VX c #FCFAD4",
"CX c #F0EACD",
"ZX c #E8DCEB",
"AX c #F9F4E3",
"SX c #DAEAFD",
/* pixels */
"                                                                                                                                ",
"                                                                                                                                ",
"                                                  O O O O O O @ O O O r O O O                                                   ",
"                                          O O O + * < 7 0 s.s.s.s.s.q w 3 ; % O O O                                             ",
"                                      O O + > w d.j.f.d.q w 7 7 7 7 0 s.f.j.j.q 3 = @ O                                         ",
"                                  r r & 7 d.f.q 3 = % O O r O O r O O O @ * , w d.j.q > t r                                     ",
"                              r r s w d.g.3 & r O O r O + $ $ = & O & % r O r O + > q z.s.: r r                                 ",
"                            y t 3 g.g.> t r r + r * 4 % : 3 $ 8 6 - 4 : & : * t O r r = w z.9 d r                               ",
"                          y h 9 a.< + r O u u <.B & 8 & <.e ^ $.8 8 @.t $.1 ;.> -.t u O $ * 9 a.1 r r                           ",
"                      y r ; g.9 h y y h D ( s K.t.%.t.D ^ * * S C d &.A %.=.=.&.+.*.*.d y y u 6 z.w u r                         ",
"                    y i < a.3 t y u y u =.y.S =.C Z B = = > < , , , , = h V s >.S t.y.^ y y y y ; a.9 u y                       ",
"                  u i 3 a., r u u y u y B O.d % V 3 8 5 < < ; ; ; > , 2 7 5 > & h B :.s i u y y r & g.9 h y                     ",
"                  i 2 a., y u p y y p u u s < 8 5 ; % u $ y u u y r u u $ d , 6 2 B u u u p u u p y h g.9 u u                   ",
"                a : a.< i p u p p p p u > 7 2 % r t r $ u $ u $ $ f u u $ u y y - 3 < h p u a p p p p h g.q p u                 ",
"              u g a.5 i a p p p a p d 6 5 g u f f f u u u u u u u u u u u u s $ y a S 6 B i p a p p p i B z.7 i                 ",
"            a a e e p i a a p a p B 7 C u u a s s f f u s u u u f k v a z k a p f v p h 6 > a i a p p p i < N.F p               ",
"            j 8 N.f a a a a a k A 8 B p u u u u u u g u u u a j l c R c x x x x I z u u p < < a a a a k a a e N.a y             ",
"          k H N.^ i a a a k a Z 8 d p u u p a u a h z u a a k l L l L L L K l L Y j i u u p < < k a k a k a a N.0 i             ",
"          i 2.A.a k a k k k f 8 d u B C D A C C f p M C A G H { ! ! ! ..! ! oX%X/ H G A A s p < C k a k k k k -.J.Z a           ",
"        k ^ J.^ k k k k k k 8 A p h x.B.M.B.M.M.s.p Z f.E.G.G.G.U.tXtXv._.tXtX_.G.G.^.D.M.O.a f 5 Z k k k k k a C.2.j           ",
"        j 5.A.b k k k v l ^ 8 a a p f.Q.B.B.B.E.V.#.k , ^.~.).)._.tX_._.tXtXtX_.).~.~.^.B.+.p a g 8 v k k v k k >.(.H y         ",
"      k M J.%.l l k v k v 0 v a a f b.Q.f.3 c.Q.Q.^.( i F &.0.0.0.%X%X%X;X;X0.0.0.*.=.!.Q.@.p z k ^ ^ k v k k k M J.6.j         ",
"      b >.R.b b l v b l $.*.a v H n F./.x.r < !././.v.c P K W W oX+X+X:X>X$XOXoXE L ! )./.%.i M k z $.H b b b b k K.J.K         ",
"      k P.K.k b b b b H 2.M z v n f F.}.m.j p ;. X X Xt.R W W oX+X$X:X1XnXyXyXrXOXE ' _.'.*.k M v b ( ( l b l b b | XX| a       ",
"    b Q XX .l K b b K *.>.k v n n z T..XK.z m g F.|.[.[.9.L W @X+X:X1XmXZXMXiX%X) E ' {.].0.k b v v M >.b b b b b b XXp.j       ",
"    b  .9Xm b n P b K 6./ v b b n z R..XI.v n z G {.pXpX7XW @X@X:X1XmXZXMXMX3XoX) E [ tX.X8.l n v v k >./ P P P I l P.P.l       ",
"    K p.6Xl I I I I ` y.b b b m Q z 7XsXI.z v v z =.pXdXkX4X$X@X>XmXSXZXNXwX@XoX) E [ [.pX7.l n m m b  .7.K I K I b u.8XU       ",
"    K 4X4XK I I I K  .p.k n n m Q x 7XzX4Xk b b b k I.lXbXkX*X@X1XmXZXNXNX%XOXoX) _ } iXdX8.v n b m m U 7.` I I I K 7.fX[ a     ",
"    P 5Xu.P I I ` K w.q.b n m m U b 8XzX6Xv b b b b Z tXcXcXfX#X1XCXCXCX=XoX@XW _ L [ iXaX8.b U m m m m q.I ` I I Y } iXX.a     ",
"    ` 5Xe.I ` Y ` K w. .b ` ` b Q b qXvX5Xl n b n U U 7.hXBXBXmXxXBXCXeXOXoXo.o.` ` [ kXbXr.v U m m m m r.` K ` ` I [ fXe.k     ",
"  n ` qXr.L ` Y I Y e.[ b [ ' b Q N wXVX5Xx n n R R ' Q i.VXAXVXBXVXMX..) o.W _ ` K [ kXbXr.b U m m I m 7.' Y Y Y Y ` uXe.l     ",
"  m ` uX9.L Y Y ` L u.[ b m m ` ' R wXVX5Xx P n n n U m m wXAXVXVXCX-XW Q W W Q ` I } xXvXr.b U I U U m 9.' Y Y ` Y ` uX-Xl     ",
"  n ` uX9.K ` Y ` Y u.[ n U U n ' b uXVX5Xl n P I m P ` _ nXVXBXVXhX} T Q Y T U I m  .xXBXr.v ` b b m ` 9.[ ` K ` ` ' uX,Xk     ",
"  b Y uX*XY Y Y Y L u.} b n U n ' n 8XBX5Xl n n m b m ` *XxXvXcXcXBX3Xx U Q n R m P } CXVXe.v I b ` m b 7.` ` ` ` K _ uX*Xk     ",
"    R eX&XK I ` ` L e. .l n U U n U 8XvX6Xb n n b m U X.uXbXcXkXzXcXbX=Xx U Q R m b | xXBXr.K ` m I ` m 9.` I ` ` ` ` uXe.a     ",
"    P eX,XK Y Y Y K e.w.l n b U U b 9XzXrXP n n b m _ 3XbXbXkX=.P.zXzXiX .x b Q b P | xXxXr.b m m m m m r.K ` K K K X.hXX.a     ",
"    K 3X5XK Y Y I I X.e.b n n b m H 7XsXP.x U n n OX<XkXkXaXy.k A iXaXaX7XT P U b b | kXbXw.b U m m m { 9.` ` ` Y K 9.MX[ y     ",
"    K &XeXP Y I I I ` =Xm m n b b b 7XsXrXU n m I *XfXdXdXR.g b j >.dXdXdXm.x U I b | iXaXq.l n m m I  . .K I I Y K ,XuX` $     ",
"    x X.uX[ I I I I K p.| b b n b v T.pXL.U n U OX6XXX.X{.( l b b f K..XpXtX0.b m v / pXdX8.b n m m b 7.' P I I I K eX5Xl       ",
"    v n uXe.l I I I K  .w.x n m b b U..XL.T n _ ,X|.[..X3.v v b b b A U..X|.R.H P b / tX.X7.z n b b / 9.P I I I R U gX&Xa       ",
"      K 3X3Xl I P P b U u.H x n v v T.}.m.....9.`.].}.Z.z n b v v b k @.].}.}.Z.b l / {.}.*.b n b b  .| P P R P K w.hX] $       ",
"      l r.uXU P P P P b 7.7.z x n R F. XL...-X_.].'.!.G l n v v v v b k ,.F.F.F.( k G `.'.*.l n b M q.I n P b b l 3XeXb X       ",
"      v R qXe.x n b P b U p.H z M n F. Xn.%Xm. X~.Q.#.k l b k k k k k l u u t h x j G !./.%.l b b ( | l b P P K H gX-Xi         ",
"        k i.qXx K b b b K | t.z v v c.'.tXrX_.~.Q.1.j J ,.,.,.,.,.,.,.,.,.4.,.,.,.:.5.!.Q.@.z v / 7.l b b b b l =XfXH $         ",
"        j ! fXw.l x b x x x 8.( j x f.Q._.).~.W.j.d v c.Q.V.V.V.W.W.V.W.W.W.V.W.W.W.Q.E.B.@.k c *.n b b l b l H fXi.j           ",
"          k =X8Xc x x b x x x t.J c s.l.n.n.l.n.< a -.N.M.k.k.N.h.h.h.h.k.k.h.h.h.h.k.N.k.^ z &./ b b z b z j i.fXH $           ",
"          z c 8Xp.j x x x x j M =.J d B & - & & a z d * = = * * Z * * * * = * * = * * * = f %./ k b k v l k ( fXe.p             ",
"            j 8.fXJ j z z z z z H =.G j c j c h f z a f s N a a a a a a a z a a v a p a f +.J j k k k k l k 7X7Xg @             ",
"            f a I.7Xk j k z < 5 N z $.( f f c f f f a f a g f f f f v f N M f a c a a g +.G j c ^ a k k a y.iX/ r               ",
"              p c 7XI.a k C 6 d = a a ^ @.Z f z a f u f a N a f f N f a a f u h z f D ^ g j f , 6 f a i 7.dXq.y .               ",
"                j J tXy.u h 5 a O.8 M i Z @.O.Z a p u N s f a u a f u a f h a f S ^ S p a ^ < t : C i ( tXy.h X                 ",
"                  u ( {.t.y u Z 4.2.S Z a p B O.5 C * f u z u p a f $ f g Z F O.C h i f g <.C G p r ( XXK.s @                   ",
"                  $ u ( {.5.t i D %.h y.( Z f p f ; F 5 < S S > 1 ^ : S < C B p i u ( t.8.F 3.D r %.{.m.p @                     ",
"                    $ r D `.Z.g y p G >.= y.q.Z Z u t u s d ; C ; = * u u i u u *.%.D y.y.G t t :.{.5.h @                       ",
"                      $ u B Z.U.+.r u t J t.&.C y.J G G y u u y y y a Z s D t.D t.3.h ^ d t V v.`.$.t X                         ",
"                          $ u ,.H.x.B r s % r D ^ D =.$.^ *.@.D D ^ ^ 6.&.^ y.&.C >.B O t ;.!.F.F O X                           ",
"                            + + F F.D.;.B r t * s C #.#.^ #.+ C @.-.V 1.#.B @.> t @ s #.b.G.:.t @ .                             ",
"                              X @ + @.S.D.1.F + O o = = + 3 3 & 6 < + - & + O + - ;.D.H.1.B @ X                                 ",
"                                  @ @ s 2 x.D.b.x.7 - + + + + O @ O t + = 2 0 b.D.b.;.= + X .                                   ",
"                                      X @ + = 7 s.b.l.l.f.c.s.x.s.d.b.j.S.l.c.;., + o X .                                       ",
"                                          X X O @ + B 1 7 0 q q 1.0 7 2 : s @ o o #                                             ",
"                                                  # # X o o o o o o o X # # .                                                   ",
"                                                                                                                                ",
"                                                                                                                                "
};
